<?xml version="1.0" encoding="UTF-8" standalone="no"?>
<svg
   width="346"
   height="152"
   viewBox="0 0 346 152"
   version="1.1"
   xmlns="http://www.w3.org/2000/svg">
  <g transform="translate(63.271058,-35.718755)">
    <path
       style="fill:#d32f2f;fill-opacity:1"
       d="M 115.25412,35.718754 A 24.798219,24.798219 0 0 0 96.076827,44.843898 H -0.18984149 c -42.04953551,0 -63.08121751,12.258159 -63.08121751,71.243652 0,58.98561 21.031494,71.06539 63.08121751,71.06539 H 72.812178 V 113.17637 H 39.32877 v 42.6321 H 4.1096982e-6 C -19.077808,155.80847 -25.700419,148.20847 -25.700419,116.08755 c 0,-32.120979 6.622611,-39.89894 25.7004231096982,-39.89894 H 96.088542 a 24.798219,24.798219 0 0 0 19.165578,9.125082 24.798219,24.798219 0 0 0 24.79747,-24.797469 24.798219,24.798219 0 0 0 -24.79747,-24.797469 z m 0,8.055765 A 16.732549,16.732549 0 0 1 131.98374,60.516037 16.732549,16.732549 0 0 1 115.25412,77.24584 16.732549,16.732549 0 0 1 98.512666,60.516037 16.732549,16.732549 0 0 1 115.25412,43.774519 Z m 100.44911,1.069131 c -42.04923,0 -63.08078,12.258097 -63.08078,71.24365 0,58.98568 21.03155,71.06564 63.08078,71.06564 h 66.38406 v -31.34471 h -66.1939 c -18.88325,0 -25.70043,-7.40527 -25.70043,-39.72093 0,-32.315663 6.62262,-39.898938 25.70043,-39.898938 h 66.1939 V 44.84365 Z M 97.728343,97.016863 V 187.15275 H 132.768 V 97.016863 Z" />
  </g>
</svg>
