<?xml version="1.0" encoding="UTF-8" standalone="no"?>
<!-- Created with Inkscape (http://www.inkscape.org/) -->

<svg
   width="345.35904mm"
   height="199.03917mm"
   viewBox="0 0 345.35904 199.03917"
   version="1.1"
   id="svg1"
   inkscape:version="1.4.3 (0d15f75042, 2025-12-25)"
   sodipodi:docname="GriffithICTClubLogo.svg"
   xmlns:inkscape="http://www.inkscape.org/namespaces/inkscape"
   xmlns:sodipodi="http://sodipodi.sourceforge.net/DTD/sodipodi-0.dtd"
   xmlns="http://www.w3.org/2000/svg"
   xmlns:svg="http://www.w3.org/2000/svg">
  <sodipodi:namedview
     id="namedview1"
     pagecolor="#ffffff"
     bordercolor="#000000"
     borderopacity="0.25"
     inkscape:showpageshadow="2"
     inkscape:pageopacity="0.0"
     inkscape:pagecheckerboard="0"
     inkscape:deskcolor="#d1d1d1"
     inkscape:document-units="mm"
     inkscape:zoom="0.71179153"
     inkscape:cx="764.97117"
     inkscape:cy="496.63418"
     inkscape:window-width="1920"
     inkscape:window-height="1008"
     inkscape:window-x="0"
     inkscape:window-y="0"
     inkscape:window-maximized="1"
     inkscape:current-layer="layer1" />
  <defs
     id="defs1" />
  <g
     inkscape:label="Layer 1"
     inkscape:groupmode="layer"
     id="layer1"
     transform="translate(63.271058,-35.718755)">
    <path
       id="path1"
       style="font-weight:bold;font-size:8.46667px;font-family:Toxigenesis;-inkscape-font-specification:'Toxigenesis Bold';letter-spacing:0px;fill:#d32f2f;fill-opacity:1;stroke-width:31.026;paint-order:stroke fill markers"
       d="M 115.25412,35.718754 A 24.798219,24.798219 0 0 0 96.076827,44.843898 H -0.18984149 c -42.04953551,0 -63.08121751,12.258159 -63.08121751,71.243652 0,58.98561 21.031494,71.06539 63.08121751,71.06539 H 72.812178 V 113.17637 H 39.32877 v 42.6321 H 4.1096982e-6 C -19.077808,155.80847 -25.700419,148.20847 -25.700419,116.08755 c 0,-32.120979 6.622611,-39.89894 25.7004231096982,-39.89894 H 96.088542 a 24.798219,24.798219 0 0 0 19.165578,9.125082 24.798219,24.798219 0 0 0 24.79747,-24.797469 24.798219,24.798219 0 0 0 -24.79747,-24.797469 z m 0,8.055765 A 16.732549,16.732549 0 0 1 131.98374,60.516037 16.732549,16.732549 0 0 1 115.25412,77.24584 16.732549,16.732549 0 0 1 98.512666,60.516037 16.732549,16.732549 0 0 1 115.25412,43.774519 Z m 100.44911,1.069131 c -42.04923,0 -63.08078,12.258097 -63.08078,71.24365 0,58.98568 21.03155,71.06564 63.08078,71.06564 h 66.38406 v -31.34471 h -66.1939 c -18.88325,0 -25.70043,-7.40527 -25.70043,-39.72093 0,-32.315663 6.62262,-39.898938 25.70043,-39.898938 h 66.1939 V 44.84365 Z M 97.728343,97.016863 V 187.15275 H 132.768 V 97.016863 Z" />
    <path
       d="m -49.95249,216.69193 h 12.459304 v 16.28302 q -2.47038,0.8163 -5.134092,1.31038 -2.663714,0.47259 -6.036319,0.47259 -7.045951,0 -10.826705,-4.12446 -3.780756,-4.14594 -3.780756,-12.05115 0,-4.94076 1.890377,-8.54967 1.911859,-3.60889 5.563725,-5.5852 3.673346,-1.97629 8.95781,-1.97629 2.491861,0 4.919277,0.53704 2.427417,0.53703 4.40372,1.39629 l -2.2126,5.32742 q -1.439264,-0.73038 -3.286679,-1.22444 -1.847415,-0.49407 -3.866682,-0.49407 -2.900009,0 -5.048165,1.33185 -2.126676,1.33186 -3.308161,3.73779 -1.160004,2.38445 -1.160004,5.62818 0,3.07184 0.837781,5.4563 0.837781,2.36297 2.642232,3.71632 1.804451,1.33186 4.70446,1.33186 1.417785,0 2.384455,-0.1289 0.98815,-0.15036 1.847413,-0.30074 v -6.55188 h -5.950391 z m 32.823821,-6.83113 q 0.494076,0 1.138522,0.0644 0.665929,0.043 1.07408,0.1289 l -0.494076,6.14372 q -0.322225,-0.1074 -0.923709,-0.15038 -0.580002,-0.0644 -1.009632,-0.0644 -1.697044,0 -3.222234,0.60147 -1.50371,0.58002 -2.47038,1.91188 -0.945189,1.33185 -0.945189,3.6089 v 12.223 h -6.551875 V 210.3119 h 4.962241 l 0.966671,4.03854 h 0.322222 q 1.052596,-1.84741 2.900011,-3.15779 1.847413,-1.33185 4.253348,-1.33185 z m 9.8600386,-8.95781 q 1.4607465,0 2.5133425,0.6874 1.052596,0.66594 1.052596,2.51335 0,1.82593 -1.052596,2.53481 -1.052596,0.68742 -2.5133425,0.68742 -1.4822283,0 -2.5348243,-0.68742 -1.0311143,-0.70888 -1.0311143,-2.53481 0,-1.84741 1.0311143,-2.51335 1.052596,-0.6874 2.5348243,-0.6874 z m 3.2651976,9.40891 v 24.01639 H -10.555308 V 210.3119 Z m 20.1497018,4.91928 h -5.671131 v 19.09711 H 3.9232611 V 215.23118 H 0.31436082 v -3.15779 L 3.9232611,210.3119 v -1.76148 q 0,-3.07186 1.0311161,-4.7689 1.052596,-1.71853 2.9429728,-2.40595 1.9118587,-0.70888 4.511129,-0.70888 1.911859,0 3.480011,0.32222 1.568154,0.30074 2.556306,0.68742 l -1.675562,4.81186 q -0.751855,-0.2363 -1.632598,-0.42964 -0.880744,-0.19332 -2.019266,-0.19332 -1.374821,0 -2.019268,0.83778 -0.622964,0.8163 -0.622964,2.10519 v 1.5037 h 5.671131 z m 17.034877,0 h -5.671133 v 19.09711 h -6.551875 v -19.09711 h -3.608902 v -3.15779 l 3.608902,-1.76149 v -1.76148 q 0,-3.07186 1.031114,-4.7689 1.052598,-1.71853 2.942975,-2.40595 1.911859,-0.70888 4.511127,-0.70888 1.911859,0 3.480013,0.32222 1.568154,0.30074 2.556306,0.68742 l -1.675561,4.81186 q -0.751856,-0.2363 -1.6326,-0.42964 -0.880743,-0.19332 -2.019267,-0.19332 -1.374818,0 -2.019266,0.83778 -0.622966,0.8163 -0.622966,2.10519 v 1.5037 h 5.671133 z m 7.024469,-14.32819 q 1.460747,0 2.513343,0.6874 1.052596,0.66594 1.052596,2.51335 0,1.82593 -1.052596,2.53481 -1.052596,0.68742 -2.513343,0.68742 -1.482226,0 -2.534824,-0.68742 -1.031114,-0.70888 -1.031114,-2.53481 0,-1.84741 1.031114,-2.51335 1.052598,-0.6874 2.534824,-0.6874 z m 3.265198,9.40891 v 24.01639 H 36.918938 V 210.3119 Z m 16.991909,19.226 q 1.074078,0 2.08371,-0.21481 1.031116,-0.21482 2.040749,-0.53704 v 4.87632 q -1.052596,0.47258 -2.62075,0.77334 -1.546673,0.32221 -3.394086,0.32221 -2.148155,0 -3.866681,-0.68741 -1.697043,-0.70888 -2.685196,-2.42741 -0.96667,-1.74002 -0.96667,-4.83336 v -11.57856 h -3.136306 v -2.77111 l 3.608902,-2.19113 1.890377,-5.06964 h 4.188904 v 5.1126 h 6.723729 v 4.91928 h -6.723729 v 11.57856 q 0,1.37483 0.773335,2.06223 0.794819,0.66593 2.083712,0.66593 z m 15.531173,-28.63491 v 6.80966 q 0,1.78295 -0.128889,3.39408 -0.107408,1.61112 -0.171854,2.27704 h 0.343705 q 1.160006,-1.84742 2.942975,-2.68519 1.804441,-0.83778 4.017053,-0.83778 3.888165,0 6.251136,2.10519 2.362971,2.08371 2.362971,6.70224 v 15.66006 h -6.551875 v -14.02745 q 0,-5.19854 -3.866685,-5.19854 -2.985937,0 -4.102979,2.04075 -1.095558,2.04073 -1.095558,5.88594 v 11.2993 h -6.551877 v -33.4253 z m 34.306045,33.4253 v -31.40604 h 6.6593 v 31.40604 z m 27.90455,-26.3149 q -3.82372,0 -5.86447,2.87853 -2.01928,2.87852 -2.01928,7.81929 0,5.0052 1.86892,7.75483 1.89037,2.74965 6.01483,2.74965 1.91186,0 3.82371,-0.42964 1.93335,-0.42964 4.1889,-1.22446 v 5.58522 q -2.08371,0.85926 -4.10296,1.22444 -2.01927,0.38667 -4.53262,0.38667 -4.85482,0 -7.99113,-1.99779 -3.11483,-2.01925 -4.61854,-5.62816 -1.50372,-3.63038 -1.50372,-8.46374 0,-4.74743 1.69705,-8.39929 1.69704,-3.65187 4.98373,-5.71408 3.30814,-2.08371 8.05558,-2.08371 2.3415,0 4.68297,0.60148 2.36299,0.57999 4.51114,1.61111 l -2.14815,5.41336 q -1.7615,-0.8378 -3.54447,-1.46076 -1.78297,-0.62295 -3.50149,-0.62295 z m 26.80898,26.3149 h -6.65929 v -25.86381 h -8.52817 v -5.54223 h 23.71563 v 5.54223 h -8.52817 z m 38.12978,-26.3149 q -3.82373,0 -5.86446,2.87853 -2.01927,2.87852 -2.01927,7.81929 0,5.0052 1.86889,7.75483 1.89037,2.74965 6.01484,2.74965 1.91185,0 3.82372,-0.42964 1.93334,-0.42964 4.18891,-1.22446 v 5.58522 q -2.08371,0.85926 -4.10299,1.22444 -2.01927,0.38667 -4.5326,0.38667 -4.85484,0 -7.99115,-1.99779 -3.11483,-2.01925 -4.61854,-5.62816 -1.5037,-3.63038 -1.5037,-8.46374 0,-4.74743 1.69704,-8.39929 1.69705,-3.65187 4.98372,-5.71408 3.30817,-2.08371 8.05559,-2.08371 2.34149,0 4.68298,0.60148 2.36297,0.57999 4.51112,1.61111 l -2.14815,5.41336 q -1.76149,-0.8378 -3.54447,-1.46076 -1.78295,-0.62295 -3.50148,-0.62295 z m 20.7297,26.3149 h -6.55188 v -33.4253 h 6.55188 z m 28.91417,-24.01639 v 24.01639 h -5.02668 l -0.88074,-3.07187 h -0.3437 q -1.16001,1.82593 -3.15778,2.66373 -1.9978,0.83777 -4.23189,0.83777 -3.86666,0 -6.20816,-2.08371 -2.32001,-2.08371 -2.32001,-6.70225 V 210.3119 h 6.55188 v 14.02746 q 0,2.57779 0.9237,3.88817 0.92371,1.31037 2.94298,1.31037 3.00741,0 4.10297,-2.04075 1.09555,-2.06223 1.09555,-5.88594 V 210.3119 Z m 13.42597,-9.40891 v 7.77631 q 0,1.35334 -0.0859,2.68521 -0.0644,1.33186 -0.17186,2.06222 h 0.25778 q 0.94519,-1.48222 2.57779,-2.51333 1.63259,-1.0526 4.23186,-1.0526 4.03855,0 6.55188,3.15779 2.51335,3.15779 2.51335,9.25854 0,6.16522 -2.55631,9.32301 -2.55631,3.15778 -6.68076,3.15778 -2.64225,0 -4.16742,-0.94519 -1.5252,-0.94518 -2.47039,-2.12667 h -0.45112 l -1.09556,2.64223 h -5.0052 v -33.4253 z m 4.70446,14.19931 q -2.57779,0 -3.60891,1.58963 -1.03111,1.58964 -1.09555,4.83335 v 0.70889 q 0,3.50149 1.03111,5.3704 1.03112,1.84742 3.75927,1.84742 2.01927,0 3.20077,-1.86892 1.20295,-1.86889 1.20295,-5.39186 0,-3.52298 -1.20295,-5.30594 -1.20298,-1.78297 -3.28669,-1.78297 z"
       id="text5"
       style="font-weight:bold;font-size:220.996px;font-family:'Open Sans';-inkscape-font-specification:'Open Sans Bold';fill:#d32f2f;fill-opacity:1;stroke-width:0.589207"
       aria-label="Griffith ICT Club" />
  </g>
</svg>
