<?xml version="1.0" encoding="UTF-8" standalone="no"?>
<svg
   width="346"
   height="199"
   viewBox="0 0 345.35907 198.78932"
   version="1.1"
   xmlns="http://www.w3.org/2000/svg">
  <g transform="translate(63.271059,-35.718754)">
    <path
       style="fill:#d32f2f;fill-opacity:1"
       d="m 115.25412,35.718754 c -7.43738,0.01202 -14.47669,3.361537 -19.177293,9.125144 H -0.18984149 c -42.04953551,0 -63.08121751,12.258159 -63.08121751,71.243652 0,58.98561 21.031494,71.06539 63.08121751,71.06539 H 72.812178 V 113.17637 H 39.32877 v 42.6321 H 4.1096982e-6 C -19.077808,155.80847 -25.700419,148.20847 -25.700419,116.08755 c 0,-32.120979 6.622611,-39.89894 25.7004231096982,-39.89894 H 96.088542 c 4.698018,5.760412 11.732308,9.109566 19.165578,9.125082 13.69509,-4.14e-4 24.79706,-11.102376 24.79747,-24.797469 -4.1e-4,-13.695093 -11.10238,-24.797055 -24.79747,-24.797469 z m 0,8.055765 c 9.24349,0.0016 16.73457,7.498028 16.72962,16.741518 -0.002,9.238916 -7.4907,16.728186 -16.72962,16.729803 -9.24354,0.0049 -16.739938,-7.486265 -16.741454,-16.729803 -0.005,-9.248113 7.493344,-16.746441 16.741454,-16.741518 z m 100.44911,1.069131 c -42.04923,0 -63.08078,12.258097 -63.08078,71.24365 0,58.98568 21.03155,71.06564 63.08078,71.06564 h 66.38406 v -31.34471 h -66.1939 c -18.88325,0 -25.70043,-7.40527 -25.70043,-39.72093 0,-32.315663 6.62262,-39.898938 25.70043,-39.898938 h 66.1939 V 44.84365 Z M 97.728343,97.016863 V 187.15275 H 132.768 V 97.016863 Z" />
    <path
       style="fill:#d32f2f;fill-opacity:1"
       d="m -43.853085,234.46937 q -3.602552,0 -6.664721,-1.30593 -3.062169,-1.30592 -5.358796,-3.64758 -2.296627,-2.34166 -3.602552,-5.49389 -1.260893,-3.15223 -1.260893,-6.88988 0,-3.73765 1.215861,-6.88988 1.260893,-3.19727 3.512488,-5.49389 2.296627,-2.34166 5.358796,-3.60256 3.062169,-1.30592 6.664721,-1.30592 3.602552,0 6.439562,1.21586 2.882041,1.21586 4.863445,3.2423 1.981403,1.9814 2.837009,4.36809 l -5.448859,2.61185 q -0.94567,-2.61185 -3.197265,-4.233 -2.251595,-1.62115 -5.493892,-1.62115 -3.152233,0 -5.583955,1.48606 -2.386691,1.48605 -3.737648,4.0979 -1.305925,2.61185 -1.305925,6.12434 0,3.51249 1.350957,6.16937 1.395989,2.61185 3.827711,4.0979 2.431723,1.48605 5.583956,1.48605 2.566818,0 4.728349,-0.9907 2.161531,-1.03573 3.467456,-2.88204 1.305925,-1.89134 1.305925,-4.45816 v -2.56682 l 2.791978,2.43173 h -12.428804 v -5.17867 h 15.761165 v 3.37739 q 0,3.87274 -1.305925,6.84485 -1.305925,2.9721 -3.55752,4.99854 -2.206563,1.9814 -4.998541,3.01714 -2.791978,0.9907 -5.764083,0.9907 z m 19.994188,-0.54038 v -24.49736 h 5.538924 v 5.44886 l -0.450319,-0.81057 q 0.855606,-2.74695 2.656882,-3.82771 1.846308,-1.08077 4.413126,-1.08077 h 1.441021 v 5.2237 h -2.1165 q -2.521786,0 -4.052871,1.57612 -1.531084,1.53108 -1.531084,4.32306 v 13.64467 z m 16.8419535,0 v -24.49736 h 5.8991787 v 24.49736 z m 0,-27.2443 v -6.30447 h 5.8991787 v 6.30447 z M 7.168142,233.92899 V 214.70036 H 2.8450797 v -5.26873 H 7.168142 v -0.81057 q 0,-2.79198 1.1257974,-4.72835 1.1708294,-1.9814 3.2422966,-3.01714 2.071467,-1.03573 4.908477,-1.03573 0.540383,0 1.170829,0.0901 0.675479,0.045 1.125798,0.1351 v 5.0886 q -0.450319,-0.0901 -0.855606,-0.0901 -0.360255,-0.045 -0.675479,-0.045 -1.981403,0 -3.062169,0.90063 -1.080765,0.85561 -1.080765,2.70192 v 0.81057 h 10.717592 v 5.26873 H 13.067321 v 19.22863 z m 32.242839,0 v -24.49736 h 5.899179 v 24.49736 z m -14.410207,0 v -19.22863 h -4.323062 v -5.26873 h 4.323062 v -0.81057 q 0,-2.79198 1.125797,-4.72835 1.125798,-1.9814 3.197265,-3.01714 2.116499,-1.03573 4.953509,-1.03573 0.540383,0 1.170829,0.0901 0.675479,0.045 1.080766,0.1351 v 5.0886 q -0.405287,-0.0901 -0.810574,-0.0901 -0.360256,-0.045 -0.675479,-0.045 -1.981403,0 -3.062169,0.90063 -1.080766,0.85561 -1.080766,2.70192 v 0.81057 h 10.717592 v 5.26873 H 30.899952 v 19.22863 z m 36.430825,0.27019 q -4.142934,0 -6.439561,-2.2516 -2.251595,-2.29662 -2.251595,-6.43956 v -10.80766 h -4.232999 v -5.26873 h 0.450319 q 1.801276,0 2.791978,-0.94567 0.990702,-0.94567 0.990702,-2.74694 v -1.89134 h 5.899179 v 5.58395 h 5.628987 v 5.26873 h -5.628987 v 10.49244 q 0,1.21586 0.405287,2.07146 0.450319,0.85561 1.350957,1.30593 0.94567,0.45032 2.38669,0.45032 0.315224,0 0.720511,-0.045 0.450319,-0.045 0.855606,-0.0901 v 5.04358 q -0.630447,0.0901 -1.441021,0.18012 -0.810574,0.0901 -1.486053,0.0901 z m 7.430272,-0.27019 v -34.08915 h 5.899179 v 14.41021 l -0.810574,-0.85561 q 0.855606,-2.20656 2.791977,-3.33236 1.981404,-1.17083 4.593254,-1.17083 2.701914,0 4.773381,1.17083 2.1165,1.17083 3.287329,3.28733 1.170829,2.07147 1.170829,4.81841 v 15.76117 h -5.899178 v -14.36518 q 0,-1.62115 -0.630447,-2.79198 -0.630447,-1.17083 -1.756244,-1.80127 -1.080766,-0.67548 -2.566818,-0.67548 -1.441021,0 -2.566818,0.67548 -1.125798,0.63044 -1.756245,1.80127 -0.630446,1.17083 -0.630446,2.79198 v 14.36518 z m 35.214939,0 v -33.54877 h 6.12434 v 33.54877 z m 28.32504,0.54038 q -3.60255,0 -6.66472,-1.30593 -3.01714,-1.30592 -5.31377,-3.64758 -2.25159,-2.34166 -3.51248,-5.49389 -1.2609,-3.15223 -1.2609,-6.88988 0,-3.73765 1.21586,-6.88988 1.2609,-3.19727 3.51249,-5.49389 2.29663,-2.34166 5.3588,-3.60256 3.06217,-1.30592 6.66472,-1.30592 3.60255,0 6.43956,1.21586 2.88204,1.21586 4.86345,3.2423 1.9814,1.9814 2.83701,4.36809 l -5.4939,2.56682 q -0.94567,-2.52179 -3.19726,-4.14294 -2.2516,-1.66618 -5.44886,-1.66618 -3.15223,0 -5.58396,1.48606 -2.38669,1.48605 -3.73764,4.0979 -1.30593,2.61185 -1.30593,6.12434 0,3.51249 1.30593,6.16937 1.35095,2.61185 3.73764,4.0979 2.43173,1.48605 5.58396,1.48605 3.19726,0 5.44886,-1.62115 2.25159,-1.66618 3.19726,-4.18796 l 5.4939,2.56682 q -0.85561,2.38669 -2.83701,4.41312 -1.98141,1.98141 -4.86345,3.19727 -2.83701,1.21586 -6.43956,1.21586 z m 25.03774,-0.54038 v -28.14494 h -8.69116 v -5.40383 h 23.41659 v 5.40383 h -8.55606 v 28.14494 z m 42.23989,0.54038 q -3.60255,0 -6.66472,-1.30593 -3.01714,-1.30592 -5.31376,-3.64758 -2.2516,-2.34166 -3.51249,-5.49389 -1.26089,-3.15223 -1.26089,-6.88988 0,-3.73765 1.21586,-6.88988 1.26089,-3.19727 3.51249,-5.49389 2.29662,-2.34166 5.35879,-3.60256 3.06217,-1.30592 6.66472,-1.30592 3.60255,0 6.43956,1.21586 2.88205,1.21586 4.86345,3.2423 1.9814,1.9814 2.83701,4.36809 l -5.49389,2.56682 q -0.94567,-2.52179 -3.19727,-4.14294 -2.25159,-1.66618 -5.44886,-1.66618 -3.15223,0 -5.58395,1.48606 -2.38669,1.48605 -3.73765,4.0979 -1.30593,2.61185 -1.30593,6.12434 0,3.51249 1.30593,6.16937 1.35096,2.61185 3.73765,4.0979 2.43172,1.48605 5.58395,1.48605 3.19727,0 5.44886,-1.62115 2.2516,-1.66618 3.19727,-4.18796 l 5.49389,2.56682 q -0.85561,2.38669 -2.83701,4.41312 -1.9814,1.98141 -4.86345,3.19727 -2.83701,1.21586 -6.43956,1.21586 z m 18.59819,-0.54038 v -34.08915 h 5.89918 v 34.08915 z m 20.08424,0.54038 q -2.83701,0 -4.9535,-1.26089 -2.07147,-1.2609 -3.19727,-3.51249 -1.08076,-2.2516 -1.08076,-5.26873 v -14.99563 h 5.89917 v 14.50027 q 0,1.53109 0.58542,2.70192 0.63045,1.1258 1.75624,1.80127 1.17083,0.63045 2.61185,0.63045 1.44102,0 2.56682,-0.63045 1.1258,-0.67547 1.75625,-1.8463 0.63044,-1.17083 0.63044,-2.79198 v -14.36518 h 5.89918 v 24.49736 h -5.58396 v -4.81842 l 0.49536,0.85561 q -0.85561,2.25159 -2.83701,3.37739 -1.93638,1.1258 -4.54823,1.1258 z m 31.34224,0 q -2.65688,0 -4.90848,-1.03574 -2.20656,-1.08076 -3.51249,-3.06216 l 0.58542,-1.17083 v 4.72835 h -5.53892 v -34.08915 h 5.89917 v 14.45524 l -0.90063,-1.21586 q 1.26089,-1.98141 3.42242,-3.06217 2.16153,-1.1258 4.99854,-1.1258 3.46746,0 6.25943,1.71121 2.79198,1.71121 4.41313,4.59326 1.66618,2.88204 1.66618,6.48459 0,3.55752 -1.62115,6.48459 -1.62115,2.92708 -4.41312,4.63829 -2.79198,1.66618 -6.3495,1.66618 z m -0.67548,-5.40383 q 2.02644,0 3.60255,-0.94567 1.57612,-0.94567 2.43172,-2.61185 0.90064,-1.66618 0.90064,-3.82771 0,-2.16153 -0.90064,-3.78268 -0.8556,-1.66618 -2.43172,-2.61185 -1.57611,-0.9907 -3.60255,-0.9907 -1.93637,0 -3.51249,0.94567 -1.53108,0.94567 -2.43172,2.65688 -0.85561,1.66618 -0.85561,3.78268 0,2.16153 0.85561,3.82771 0.90064,1.66618 2.43172,2.61185 1.57612,0.94567 3.51249,0.94567 z"
       aria-label="Griffith ICT Club" />
  </g>
</svg>
